<?xml version="1.0" standalone="no"?>
<!DOCTYPE svg PUBLIC "-//W3C//DTD SVG 20010904//EN"
 "http://www.w3.org/TR/2001/REC-SVG-20010904/DTD/svg10.dtd">
<svg version="1.0" xmlns="http://www.w3.org/2000/svg"
 width="500.000000pt" height="500.000000pt" viewBox="0 0 500.000000 500.000000"
 preserveAspectRatio="xMidYMid meet">

<g transform="translate(0.000000,500.000000) scale(0.100000,-0.100000)"
fill="#000000" stroke="none">
<path d="M2195 4320 c-35 -13 -48 -38 -47 -87 2 -62 9 -94 38 -159 35 -80 33
-160 -7 -261 -27 -67 -32 -90 -31 -164 0 -72 5 -99 31 -163 40 -99 41 -172 6
-255 -27 -64 -47 -172 -38 -199 12 -34 36 -52 69 -52 41 0 74 38 74 86 0 18
14 68 32 111 27 68 31 90 32 173 0 84 -3 102 -28 155 -42 89 -46 172 -13 255
57 142 59 237 6 368 -16 41 -29 89 -29 107 0 47 -8 64 -41 80 -15 8 -29 15
-31 14 -2 0 -12 -4 -23 -9z"/>
<path d="M2715 3700 c-26 -29 -16 -146 19 -225 38 -84 39 -168 1 -250 -36 -79
-46 -196 -20 -225 21 -23 72 -26 100 -7 11 9 21 34 26 70 4 31 20 86 35 124
24 58 28 82 28 163 0 81 -4 105 -28 163 -15 38 -31 93 -35 124 -5 36 -15 61
-26 70 -28 19 -79 16 -100 -7z"/>
<path d="M2415 2850 c-132 -21 -287 -83 -385 -155 -72 -53 -191 -184 -233
-256 l-38 -66 -327 -6 c-299 -5 -337 -7 -442 -30 -195 -42 -322 -104 -435
-209 -158 -148 -230 -317 -205 -481 34 -223 210 -356 511 -388 86 -9 242 -3
566 22 367 28 525 -20 928 -281 202 -131 317 -191 460 -240 403 -138 839 -103
1240 100 295 149 494 327 590 525 69 143 81 241 46 377 -60 233 -237 401 -556
528 -164 65 -491 134 -688 146 -203 11 -188 6 -251 89 -153 199 -378 315 -637
329 -46 3 -111 1 -144 -4z m280 -165 c80 -21 188 -73 255 -123 156 -117 265
-327 271 -519 3 -96 -38 -141 -176 -194 -143 -56 -238 -71 -480 -76 -202 -4
-230 -2 -350 20 -196 37 -335 100 -370 167 -34 65 -8 217 60 359 38 78 60 108
128 176 183 183 426 252 662 190z m780 -400 c166 -12 422 -66 577 -121 231
-83 402 -215 471 -362 28 -61 31 -76 32 -168 0 -99 -1 -102 -44 -189 -105
-212 -394 -423 -745 -544 -216 -75 -417 -96 -634 -67 -235 31 -420 109 -707
296 -271 177 -445 256 -635 291 -94 17 -322 15 -579 -6 -337 -27 -500 -5 -618
84 -69 53 -98 115 -98 211 0 68 4 84 38 153 85 171 258 287 497 333 114 22
358 35 523 27 145 -6 148 -7 142 -27 -4 -12 -9 -69 -12 -128 -5 -102 -4 -110
21 -162 89 -182 390 -288 821 -288 359 -1 612 66 756 200 33 30 64 70 75 95
23 56 21 182 -6 293 -11 47 -20 88 -20 90 0 3 15 3 33 0 17 -3 68 -8 112 -11z"/>
</g>
</svg>
